if (_typeface_js && _typeface_js.loadFace) _typeface_js.loadFace({"glyphs":{"S":{"x_min":53.984375,"x_max":686.015625,"ha":756,"o":"m 533 881 l 656 843 l 683 926 l 549 972 l 192 972 l 53 830 l 53 666 l 90 588 l 578 347 l 597 311 l 597 179 l 510 90 l 203 90 l 85 131 l 56 47 l 194 0 l 547 0 l 686 141 l 686 337 l 643 418 l 158 658 l 142 693 l 142 793 l 229 881 l 533 881 "},"/":{"x_min":0,"x_max":688.71875,"ha":703,"o":"m 0 28 l 72 -19 l 688 943 l 616 989 l 0 28 "},"K":{"x_min":108.890625,"x_max":766.3125,"ha":782,"o":"m 427 567 l 758 923 l 694 986 l 197 452 l 197 972 l 108 972 l 108 0 l 197 0 l 197 322 l 364 501 l 692 -14 l 766 34 l 427 567 "},"7":{"x_min":13.609375,"x_max":660.140625,"ha":701,"o":"m 338 243 l 660 798 l 660 972 l 13 972 l 13 881 l 571 881 l 571 822 l 250 265 l 250 0 l 338 0 l 338 243 "},"d":{"x_min":81.671875,"x_max":694.171875,"ha":778,"o":"m 567 566 l 567 183 l 476 90 l 228 90 l 170 149 l 170 590 l 228 649 l 485 649 l 567 566 m 567 695 l 524 740 l 191 740 l 81 627 l 81 112 l 191 0 l 511 0 l 588 77 l 609 -11 l 694 9 l 656 166 l 656 972 l 567 972 l 567 695 "},",":{"x_min":0,"x_max":176.9375,"ha":208,"o":"m 0 -250 l 61 -250 l 176 83 l 74 83 l 0 -250 "},"Y":{"x_min":13.609375,"x_max":748.609375,"ha":778,"o":"m 424 0 l 424 365 l 748 938 l 669 986 l 381 474 l 92 986 l 13 938 l 336 366 l 336 0 l 424 0 "},"E":{"x_min":108.890625,"x_max":698.25,"ha":740,"o":"m 108 0 l 698 0 l 698 90 l 197 90 l 197 469 l 641 469 l 641 559 l 197 559 l 197 881 l 698 881 l 698 972 l 108 972 l 108 0 "},"y":{"x_min":13.609375,"x_max":657.421875,"ha":685,"o":"m 291 -233 l 371 -151 l 657 726 l 574 754 l 360 99 l 98 754 l 13 719 l 303 0 l 328 0 l 294 -105 l 257 -143 l 117 -143 l 117 -233 l 291 -233 "},"\"":{"x_min":40.828125,"x_max":333.46875,"ha":382,"o":"m 55 620 l 121 620 l 136 972 l 40 972 l 55 620 m 253 620 l 318 620 l 333 972 l 238 972 l 253 620 "},"g":{"x_min":67.671875,"x_max":664.28125,"ha":719,"o":"m 210 173 l 541 173 l 653 287 l 653 594 l 578 670 l 664 692 l 643 779 l 489 740 l 183 740 l 71 626 l 71 313 l 119 265 l 71 216 l 71 74 l 153 -8 l 533 -8 l 564 -40 l 564 -111 l 533 -143 l 203 -143 l 127 -68 l 67 -132 l 169 -233 l 571 -233 l 653 -150 l 653 -1 l 571 81 l 192 81 l 161 113 l 161 177 l 183 199 l 210 173 m 473 649 l 564 556 l 564 324 l 504 263 l 246 263 l 160 351 l 160 588 l 220 649 l 473 649 "},"e":{"x_min":81.671875,"x_max":658.78125,"ha":728,"o":"m 511 90 l 230 90 l 170 151 l 170 309 l 544 309 l 656 422 l 656 626 l 544 740 l 193 740 l 81 626 l 81 113 l 193 0 l 519 0 l 658 44 l 631 129 l 511 90 m 230 650 l 507 650 l 567 588 l 567 461 l 507 400 l 170 400 l 170 588 l 230 650 "},"J":{"x_min":0,"x_max":622.03125,"ha":732,"o":"m 159 0 l 481 0 l 622 143 l 622 972 l 304 972 l 304 881 l 533 881 l 533 180 l 445 90 l 198 90 l 63 226 l 0 162 l 159 0 "},"|":{"x_min":108.890625,"x_max":198.71875,"ha":314,"o":"m 198 -233 l 198 972 l 108 972 l 108 -233 l 198 -233 "},"^":{"x_min":0,"x_max":639.71875,"ha":653,"o":"m 288 971 l 0 571 l 70 519 l 319 862 l 568 519 l 639 571 l 351 971 l 288 971 "},"q":{"x_min":81.671875,"x_max":695.53125,"ha":765,"o":"m 567 44 l 567 -101 l 612 -242 l 695 -214 l 656 -91 l 656 626 l 544 740 l 193 740 l 81 626 l 81 113 l 193 0 l 524 0 l 567 44 m 567 173 l 485 90 l 228 90 l 170 149 l 170 590 l 228 649 l 509 649 l 567 590 l 567 173 "},"b":{"x_min":68.0625,"x_max":681.921875,"ha":779,"o":"m 196 695 l 196 841 l 151 982 l 68 954 l 107 831 l 107 113 l 219 0 l 570 0 l 681 113 l 681 626 l 570 740 l 239 740 l 196 695 m 196 566 l 277 649 l 534 649 l 593 590 l 593 149 l 534 90 l 254 90 l 196 149 l 196 566 "},"D":{"x_min":108.890625,"x_max":770.390625,"ha":869,"o":"m 108 972 l 108 0 l 630 0 l 770 144 l 770 827 l 630 972 l 108 972 m 681 790 l 681 181 l 593 90 l 197 90 l 197 881 l 593 881 l 681 790 "},"z":{"x_min":27.21875,"x_max":588,"ha":628,"o":"m 470 650 l 27 88 l 27 0 l 585 0 l 585 90 l 144 90 l 588 650 l 588 740 l 29 740 l 29 650 l 470 650 "},"w":{"x_min":13.609375,"x_max":977.28125,"ha":1011,"o":"m 447 709 l 273 154 l 99 754 l 13 727 l 225 0 l 318 0 l 495 563 l 672 0 l 764 0 l 977 727 l 891 754 l 717 154 l 543 709 l 447 709 "},"$":{"x_min":53.984375,"x_max":686.015625,"ha":756,"o":"m 203 90 l 85 131 l 56 47 l 194 0 l 325 0 l 325 -97 l 413 -97 l 413 0 l 547 0 l 686 141 l 686 337 l 643 418 l 158 658 l 142 693 l 142 793 l 229 881 l 533 881 l 656 843 l 683 926 l 549 972 l 414 972 l 414 1069 l 326 1069 l 326 972 l 192 972 l 53 830 l 53 666 l 90 588 l 578 347 l 597 311 l 597 179 l 510 90 l 203 90 "},"\\":{"x_min":0,"x_max":688.71875,"ha":703,"o":"m 72 989 l 0 943 l 616 -19 l 688 28 l 72 989 "},"~":{"x_min":27.21875,"x_max":822.109375,"ha":867,"o":"m 513 503 l 623 503 l 758 367 l 822 431 l 662 594 l 476 594 l 336 451 l 225 451 l 91 587 l 27 523 l 186 360 l 372 360 l 513 503 "},"-":{"x_min":27.21875,"x_max":585.28125,"ha":625,"o":"m 27 433 l 585 433 l 585 523 l 27 523 l 27 433 "},"Q":{"x_min":81.671875,"x_max":782.640625,"ha":882,"o":"m 387 0 l 387 -191 l 476 -191 l 476 0 l 628 0 l 782 143 l 782 829 l 628 972 l 235 972 l 81 829 l 81 143 l 235 0 l 387 0 m 476 90 l 476 173 l 387 173 l 387 90 l 268 90 l 170 180 l 170 791 l 268 881 l 596 881 l 694 791 l 694 180 l 596 90 l 476 90 "},"M":{"x_min":108.890625,"x_max":1023.5625,"ha":1156,"o":"m 604 230 l 935 806 l 935 0 l 1023 0 l 1023 972 l 925 972 l 566 345 l 206 972 l 108 972 l 108 0 l 197 0 l 197 806 l 528 230 l 604 230 "},"C":{"x_min":81.671875,"x_max":747.25,"ha":804,"o":"m 579 90 l 258 90 l 170 180 l 170 791 l 258 881 l 564 881 l 653 791 l 653 673 l 741 673 l 741 829 l 601 972 l 221 972 l 81 829 l 81 143 l 221 0 l 617 0 l 747 131 l 683 195 l 579 90 "},"[":{"x_min":54.4375,"x_max":304.890625,"ha":311,"o":"m 304 -233 l 304 -143 l 142 -143 l 142 881 l 304 881 l 304 972 l 54 972 l 54 -233 l 304 -233 "},"L":{"x_min":108.890625,"x_max":698.25,"ha":713,"o":"m 108 0 l 698 0 l 698 90 l 197 90 l 197 972 l 108 972 l 108 0 "},"!":{"x_min":108.890625,"x_max":231.390625,"ha":347,"o":"m 123 173 l 216 173 l 217 972 l 122 972 l 123 173 m 141 -13 l 198 -13 l 231 19 l 231 77 l 198 111 l 141 111 l 108 77 l 108 19 l 141 -13 "}," ":{"x_min":0,"x_max":0,"ha":417},"{":{"x_min":27.21875,"x_max":434.1875,"ha":443,"o":"m 147 234 l 147 -52 l 240 -203 l 413 -247 l 434 -160 l 294 -126 l 235 -34 l 235 278 l 129 372 l 235 466 l 235 779 l 294 871 l 434 905 l 413 992 l 240 948 l 147 797 l 147 510 l 27 403 l 27 341 l 147 234 "},"X":{"x_min":27.21875,"x_max":713.21875,"ha":756,"o":"m 102 986 l 27 936 l 317 486 l 29 36 l 104 -14 l 370 402 l 635 -14 l 710 36 l 423 486 l 713 936 l 638 986 l 370 569 l 102 986 "},"P":{"x_min":108.890625,"x_max":769.03125,"ha":840,"o":"m 197 370 l 628 370 l 769 512 l 769 830 l 628 972 l 108 972 l 108 0 l 197 0 l 197 370 m 590 881 l 680 791 l 680 551 l 590 461 l 197 461 l 197 881 l 590 881 "},"%":{"x_min":40.78125,"x_max":913.234375,"ha":974,"o":"m 82 39 l 151 -15 l 869 937 l 802 990 l 82 39 m 630 403 l 518 289 l 518 114 l 630 0 l 801 0 l 913 114 l 913 289 l 801 403 l 630 403 m 764 312 l 824 251 l 824 151 l 764 90 l 666 90 l 606 151 l 606 251 l 666 312 l 764 312 m 152 972 l 40 858 l 40 683 l 152 569 l 323 569 l 435 683 l 435 858 l 323 972 l 152 972 m 287 882 l 347 821 l 347 721 l 287 660 l 189 660 l 129 721 l 129 821 l 189 882 l 287 882 "},"#":{"x_min":0,"x_max":999.0625,"ha":1019,"o":"m 172 0 l 276 266 l 553 266 l 450 0 l 541 0 l 645 266 l 860 266 l 860 356 l 679 356 l 779 615 l 999 615 l 999 705 l 813 705 l 917 972 l 826 972 l 721 705 l 445 705 l 548 972 l 457 972 l 352 705 l 138 705 l 138 615 l 319 615 l 217 356 l 0 356 l 0 266 l 185 266 l 81 0 l 172 0 m 411 615 l 688 615 l 586 356 l 311 356 l 411 615 "},"_":{"x_min":0,"x_max":607.0625,"ha":619,"o":"m 0 -90 l 607 -90 l 607 0 l 0 0 l 0 -90 "},"+":{"x_min":27.21875,"x_max":612.5,"ha":653,"o":"m 274 777 l 274 523 l 27 523 l 27 433 l 274 433 l 274 180 l 363 180 l 363 433 l 612 433 l 612 523 l 363 523 l 363 777 l 274 777 "},")":{"x_min":0,"x_max":285.828125,"ha":347,"o":"m 197 -10 l 133 -113 l 0 -163 l 29 -247 l 189 -188 l 285 -30 l 285 775 l 189 933 l 29 992 l 0 908 l 133 858 l 197 755 l 197 -10 "},"'":{"x_min":40.828125,"x_max":136.109375,"ha":181,"o":"m 55 620 l 121 620 l 136 972 l 40 972 l 55 620 "},"}":{"x_min":0,"x_max":406.96875,"ha":443,"o":"m 406 341 l 406 403 l 287 510 l 287 797 l 193 948 l 20 992 l 0 905 l 140 871 l 198 779 l 198 466 l 304 372 l 198 278 l 198 -34 l 140 -126 l 0 -160 l 20 -247 l 193 -203 l 287 -52 l 287 234 l 406 341 "},"a":{"x_min":67.90625,"x_max":681.765625,"ha":765,"o":"m 643 626 l 530 740 l 223 740 l 85 692 l 114 608 l 232 649 l 493 649 l 555 588 l 555 428 l 180 428 l 67 315 l 67 113 l 180 0 l 499 0 l 575 77 l 597 -11 l 681 9 l 643 166 l 643 626 m 463 90 l 217 90 l 156 151 l 156 277 l 217 338 l 555 338 l 555 183 l 463 90 "},"T":{"x_min":0,"x_max":687.359375,"ha":701,"o":"m 387 881 l 687 881 l 687 972 l 0 972 l 0 881 l 299 881 l 299 0 l 387 0 l 387 881 "},"=":{"x_min":27.21875,"x_max":585.28125,"ha":625,"o":"m 27 559 l 585 559 l 585 650 l 27 650 l 27 559 m 27 308 l 585 308 l 585 398 l 27 398 l 27 308 "},"N":{"x_min":108.890625,"x_max":770.390625,"ha":897,"o":"m 671 0 l 770 0 l 770 972 l 681 972 l 681 156 l 208 972 l 108 972 l 108 0 l 197 0 l 197 815 l 671 0 "},"2":{"x_min":27.21875,"x_max":688.71875,"ha":758,"o":"m 174 881 l 514 881 l 600 793 l 600 618 l 500 515 l 28 200 l 28 0 l 688 0 l 688 90 l 117 90 l 117 151 l 562 448 l 688 577 l 688 829 l 549 972 l 167 972 l 27 927 l 54 843 l 174 881 "},"j":{"x_min":-95.28125,"x_max":209.609375,"ha":297,"o":"m 123 -176 l 193 -63 l 193 611 l 148 751 l 65 723 l 104 601 l 104 -44 l 62 -106 l -95 -162 l -66 -247 l 123 -176 m 119 840 l 176 840 l 209 873 l 209 931 l 176 965 l 119 965 l 87 931 l 87 873 l 119 840 "},"Z":{"x_min":27.21875,"x_max":673.75,"ha":715,"o":"m 144 90 l 673 883 l 673 972 l 34 972 l 34 881 l 556 881 l 27 86 l 27 0 l 666 0 l 666 90 l 144 90 "},"u":{"x_min":81.671875,"x_max":695.53125,"ha":779,"o":"m 657 740 l 568 740 l 568 183 l 477 90 l 231 90 l 170 152 l 170 740 l 81 740 l 81 113 l 193 0 l 513 0 l 589 77 l 611 -11 l 695 9 l 657 166 l 657 740 "},"1":{"x_min":27.21875,"x_max":462.78125,"ha":500,"o":"m 462 0 l 462 90 l 304 90 l 304 973 l 216 973 l 27 780 l 89 716 l 216 845 l 216 90 l 58 90 l 58 0 l 462 0 "},"k":{"x_min":68.0625,"x_max":671.03125,"ha":685,"o":"m 196 841 l 151 982 l 68 954 l 107 831 l 107 0 l 196 0 l 196 266 l 314 372 l 600 -14 l 671 40 l 381 431 l 664 687 l 605 754 l 196 384 l 196 841 "},"€":{"x_min":-13.609375,"x_max":747.25,"ha":804,"o":"m 0 527 l 81 527 l 81 444 l -13 444 l -13 361 l 81 361 l 81 143 l 221 0 l 617 0 l 747 131 l 683 195 l 579 90 l 258 90 l 170 180 l 170 361 l 558 361 l 558 444 l 170 444 l 170 527 l 571 527 l 571 611 l 170 611 l 170 791 l 258 881 l 564 881 l 653 791 l 653 673 l 741 673 l 741 829 l 601 972 l 221 972 l 81 829 l 81 611 l 0 611 l 0 527 "},"<":{"x_min":27.21875,"x_max":461.421875,"ha":485,"o":"m 27 333 l 402 4 l 461 72 l 127 365 l 461 657 l 402 726 l 27 396 l 27 333 "},"t":{"x_min":27.21875,"x_max":582.5625,"ha":594,"o":"m 156 618 l 156 113 l 268 0 l 443 0 l 582 44 l 555 129 l 432 90 l 304 90 l 245 151 l 245 618 l 476 618 l 476 708 l 245 708 l 245 930 l 156 930 l 156 708 l 27 708 l 27 618 l 156 618 "},"W":{"x_min":27.21875,"x_max":1208.671875,"ha":1261,"o":"m 568 942 l 347 156 l 114 986 l 27 961 l 296 0 l 397 0 l 617 783 l 838 0 l 939 0 l 1208 961 l 1121 986 l 888 156 l 666 942 l 568 942 "},"v":{"x_min":13.609375,"x_max":666.953125,"ha":694,"o":"m 385 0 l 666 720 l 585 754 l 340 124 l 95 754 l 13 720 l 295 0 l 385 0 "},">":{"x_min":13.609375,"x_max":447.8125,"ha":485,"o":"m 447 396 l 72 726 l 13 657 l 347 365 l 13 72 l 72 4 l 447 333 l 447 396 "},"s":{"x_min":40.828125,"x_max":608.421875,"ha":663,"o":"m 517 236 l 517 152 l 455 90 l 189 90 l 68 130 l 40 44 l 178 0 l 494 0 l 605 113 l 605 258 l 563 340 l 147 490 l 132 522 l 132 587 l 193 650 l 461 650 l 579 608 l 608 693 l 470 740 l 155 740 l 43 626 l 43 500 l 85 416 l 502 266 l 517 236 "},"B":{"x_min":108.796875,"x_max":768.9375,"ha":854,"o":"m 673 513 l 740 581 l 740 856 l 627 972 l 108 972 l 108 0 l 628 0 l 768 143 l 768 415 l 673 513 m 680 379 l 680 177 l 594 90 l 197 90 l 197 468 l 594 468 l 680 379 m 197 881 l 591 881 l 651 820 l 651 619 l 591 558 l 197 558 l 197 881 "},"?":{"x_min":0,"x_max":686,"ha":756,"o":"m 197 881 l 510 881 l 597 793 l 597 623 l 304 373 l 304 173 l 393 173 l 393 325 l 686 575 l 686 830 l 547 972 l 160 972 l 0 809 l 63 745 l 197 881 m 319 -16 l 377 -16 l 409 16 l 409 75 l 377 108 l 319 108 l 287 75 l 287 16 l 319 -16 "},"H":{"x_min":108.890625,"x_max":769.03125,"ha":896,"o":"m 680 550 l 197 550 l 197 972 l 108 972 l 108 0 l 197 0 l 197 459 l 680 459 l 680 0 l 769 0 l 769 972 l 680 972 l 680 550 "},"c":{"x_min":81.671875,"x_max":658.78125,"ha":714,"o":"m 511 90 l 228 90 l 170 148 l 170 591 l 228 650 l 509 650 l 567 591 l 567 472 l 656 472 l 656 625 l 544 740 l 193 740 l 81 625 l 81 115 l 193 0 l 519 0 l 658 44 l 631 129 l 511 90 "},"&":{"x_min":40.46875,"x_max":809.5,"ha":840,"o":"m 744 -17 l 809 42 l 676 195 l 802 324 l 740 388 l 616 263 l 221 712 l 221 791 l 309 881 l 514 881 l 602 791 l 602 696 l 691 696 l 691 828 l 550 971 l 273 971 l 133 830 l 133 677 l 250 544 l 40 333 l 40 141 l 180 0 l 484 0 l 613 131 l 744 -17 m 217 89 l 128 180 l 128 295 l 308 477 l 554 198 l 448 89 l 217 89 "},"I":{"x_min":40.828125,"x_max":445.078125,"ha":496,"o":"m 445 0 l 445 90 l 287 90 l 287 881 l 445 881 l 445 972 l 40 972 l 40 881 l 198 881 l 198 90 l 40 90 l 40 0 l 445 0 "},"G":{"x_min":81.671875,"x_max":741.8125,"ha":840,"o":"m 741 830 l 602 972 l 220 972 l 81 830 l 81 141 l 220 0 l 602 0 l 741 141 l 741 501 l 424 501 l 424 411 l 653 411 l 653 179 l 567 90 l 255 90 l 170 179 l 170 793 l 255 881 l 567 881 l 653 793 l 653 673 l 741 673 l 741 830 "},"(":{"x_min":54.4375,"x_max":340.28125,"ha":347,"o":"m 142 755 l 206 858 l 340 908 l 310 992 l 151 933 l 54 775 l 54 -30 l 151 -188 l 310 -247 l 340 -163 l 206 -113 l 142 -10 l 142 755 "},"`":{"x_min":-13.609375,"x_max":285.828125,"ha":278,"o":"m 93 972 l -13 972 l 209 666 l 285 666 l 93 972 "},"U":{"x_min":95.28125,"x_max":755.421875,"ha":868,"o":"m 235 0 l 615 0 l 755 141 l 755 972 l 666 972 l 666 180 l 577 90 l 273 90 l 183 180 l 183 972 l 95 972 l 95 141 l 235 0 "},"F":{"x_min":108.890625,"x_max":698.25,"ha":726,"o":"m 108 0 l 197 0 l 197 458 l 641 458 l 641 548 l 197 548 l 197 881 l 698 881 l 698 972 l 108 972 l 108 0 "},"r":{"x_min":68.0625,"x_max":624.75,"ha":638,"o":"m 455 649 l 563 543 l 624 608 l 492 742 l 250 742 l 174 662 l 152 754 l 68 732 l 106 573 l 106 0 l 194 0 l 194 556 l 285 649 l 455 649 "},":":{"x_min":40.828125,"x_max":163.328125,"ha":208,"o":"m 73 -13 l 130 -13 l 163 19 l 163 77 l 130 111 l 73 111 l 40 77 l 40 19 l 73 -13 m 73 525 l 130 525 l 163 558 l 163 616 l 130 650 l 73 650 l 40 616 l 40 558 l 73 525 "},"x":{"x_min":13.609375,"x_max":601.609375,"ha":628,"o":"m 307 448 l 85 754 l 13 699 l 253 369 l 14 40 l 87 -14 l 307 290 l 528 -14 l 600 40 l 362 369 l 601 699 l 529 754 l 307 448 "},"*":{"x_min":40.828125,"x_max":472.3125,"ha":524,"o":"m 212 822 l 87 897 l 40 818 l 167 741 l 40 665 l 87 586 l 212 661 l 212 511 l 300 511 l 300 661 l 426 586 l 472 665 l 345 741 l 472 818 l 426 897 l 300 822 l 300 972 l 212 972 l 212 822 "},"V":{"x_min":27.21875,"x_max":770.390625,"ha":814,"o":"m 458 0 l 770 956 l 684 986 l 398 109 l 112 986 l 27 956 l 338 0 l 458 0 "},"h":{"x_min":68.0625,"x_max":680.5625,"ha":778,"o":"m 196 566 l 277 649 l 533 649 l 592 590 l 592 0 l 680 0 l 680 626 l 568 740 l 239 740 l 196 695 l 196 841 l 151 982 l 68 954 l 107 831 l 107 0 l 196 0 l 196 566 "},"0":{"x_min":81.671875,"x_max":740.453125,"ha":839,"o":"m 170 173 l 170 793 l 258 881 l 566 881 l 585 863 l 170 173 m 651 798 l 651 179 l 563 90 l 255 90 l 236 108 l 651 798 m 601 972 l 221 972 l 81 830 l 81 141 l 220 0 l 600 0 l 740 141 l 740 830 l 601 972 "},".":{"x_min":40.828125,"x_max":163.328125,"ha":208,"o":"m 73 -13 l 130 -13 l 163 19 l 163 77 l 130 111 l 73 111 l 40 77 l 40 19 l 73 -13 "},"@":{"x_min":95.28125,"x_max":1101.140625,"ha":1221,"o":"m 1101 803 l 916 972 l 280 972 l 95 803 l 95 11 l 280 -158 l 920 -158 l 920 -67 l 313 -67 l 183 50 l 183 764 l 313 882 l 883 882 l 1012 764 l 1012 244 l 951 183 l 853 183 l 835 239 l 835 605 l 722 719 l 494 719 l 356 672 l 385 587 l 503 629 l 686 629 l 747 568 l 747 468 l 453 468 l 340 354 l 340 201 l 453 87 l 692 87 l 766 162 l 788 93 l 988 93 l 1101 207 l 1101 803 m 654 178 l 490 178 l 428 239 l 428 316 l 490 378 l 747 378 l 747 269 l 654 178 "},"f":{"x_min":27.21875,"x_max":575.75,"ha":518,"o":"m 142 558 l 142 0 l 231 0 l 231 558 l 461 558 l 461 648 l 231 648 l 231 822 l 289 881 l 427 881 l 545 840 l 575 925 l 436 972 l 255 972 l 142 858 l 142 648 l 27 648 l 27 558 l 142 558 "},";":{"x_min":0,"x_max":176.9375,"ha":217,"o":"m 81 525 l 138 525 l 171 558 l 171 616 l 138 650 l 81 650 l 49 616 l 49 558 l 81 525 m 0 -250 l 61 -250 l 176 83 l 74 83 l 0 -250 "},"i":{"x_min":68.0625,"x_max":212.328125,"ha":300,"o":"m 107 601 l 107 0 l 196 0 l 196 611 l 151 751 l 68 723 l 107 601 m 122 840 l 179 840 l 212 873 l 212 931 l 179 965 l 122 965 l 89 931 l 89 873 l 122 840 "},"6":{"x_min":80.875,"x_max":741.015625,"ha":813,"o":"m 80 142 l 221 0 l 600 0 l 741 141 l 741 444 l 600 590 l 214 590 l 169 574 l 169 792 l 255 881 l 585 881 l 707 841 l 736 926 l 603 971 l 219 971 l 80 828 l 80 142 m 564 499 l 652 406 l 652 180 l 564 90 l 257 90 l 169 180 l 169 484 l 214 499 l 564 499 "},"A":{"x_min":27.21875,"x_max":759.5,"ha":803,"o":"m 210 294 l 575 294 l 673 -14 l 759 13 l 455 972 l 330 972 l 27 13 l 112 -14 l 210 294 m 239 384 l 393 870 l 547 384 l 239 384 "},"n":{"x_min":68.0625,"x_max":681.921875,"ha":779,"o":"m 106 0 l 194 0 l 194 556 l 285 649 l 532 649 l 593 587 l 593 0 l 681 0 l 681 626 l 570 742 l 250 742 l 174 662 l 152 754 l 68 732 l 106 573 l 106 0 "},"O":{"x_min":81.671875,"x_max":782.640625,"ha":882,"o":"m 235 972 l 81 829 l 81 143 l 235 0 l 628 0 l 782 143 l 782 829 l 628 972 l 235 972 m 694 791 l 694 180 l 596 90 l 268 90 l 170 180 l 170 791 l 268 881 l 596 881 l 694 791 "},"3":{"x_min":13.609375,"x_max":673.75,"ha":743,"o":"m 151 0 l 533 0 l 673 141 l 673 427 l 534 569 l 328 569 l 673 880 l 673 972 l 28 972 l 28 881 l 545 881 l 205 575 l 205 479 l 499 479 l 585 391 l 585 177 l 498 90 l 160 90 l 42 131 l 13 47 l 151 0 "},"]":{"x_min":0,"x_max":250.4375,"ha":311,"o":"m 250 972 l 0 972 l 0 881 l 161 881 l 161 -143 l 0 -143 l 0 -233 l 250 -233 l 250 972 "},"m":{"x_min":68.0625,"x_max":1049.421875,"ha":1154,"o":"m 106 0 l 194 0 l 194 556 l 285 649 l 472 649 l 533 587 l 533 0 l 622 0 l 622 588 l 681 649 l 899 649 l 960 587 l 960 0 l 1049 0 l 1049 624 l 937 742 l 645 742 l 578 672 l 511 742 l 250 742 l 174 662 l 152 754 l 68 732 l 106 573 l 106 0 "},"9":{"x_min":53.984375,"x_max":714.125,"ha":813,"o":"m 714 829 l 573 972 l 194 972 l 53 830 l 53 527 l 194 381 l 580 381 l 625 397 l 625 179 l 539 90 l 209 90 l 88 130 l 58 45 l 191 0 l 575 0 l 714 143 l 714 829 m 230 472 l 142 565 l 142 791 l 230 881 l 537 881 l 625 791 l 625 487 l 580 472 l 230 472 "},"l":{"x_min":68.0625,"x_max":196,"ha":283,"o":"m 196 841 l 151 982 l 68 954 l 107 832 l 107 0 l 196 0 l 196 841 "},"8":{"x_min":81.671875,"x_max":739.078125,"ha":838,"o":"m 650 372 l 650 180 l 560 90 l 258 90 l 170 179 l 170 370 l 258 461 l 563 461 l 650 372 m 558 881 l 643 790 l 643 634 l 560 551 l 259 551 l 176 634 l 176 794 l 262 881 l 558 881 m 598 0 l 739 141 l 739 409 l 643 506 l 732 595 l 732 830 l 598 972 l 227 972 l 88 830 l 88 595 l 176 506 l 81 409 l 81 141 l 221 0 l 598 0 "},"p":{"x_min":68.0625,"x_max":680.5625,"ha":778,"o":"m 194 173 l 194 556 l 285 649 l 533 649 l 592 590 l 592 149 l 533 90 l 276 90 l 194 173 m 194 44 l 238 0 l 570 0 l 680 112 l 680 627 l 570 742 l 250 742 l 174 662 l 152 754 l 68 732 l 106 573 l 106 -233 l 194 -233 l 194 44 "},"4":{"x_min":13.609375,"x_max":743.171875,"ha":772,"o":"m 643 327 l 643 975 l 555 975 l 13 359 l 13 237 l 555 237 l 555 0 l 643 0 l 643 237 l 743 237 l 743 327 l 643 327 m 555 327 l 107 327 l 555 836 l 555 327 "},"R":{"x_min":108.875,"x_max":769.015625,"ha":840,"o":"m 197 380 l 311 380 l 703 -21 l 766 44 l 436 380 l 628 380 l 769 522 l 769 830 l 628 972 l 108 972 l 108 0 l 197 0 l 197 380 m 590 881 l 680 791 l 680 560 l 590 470 l 197 470 l 197 881 l 590 881 "},"o":{"x_min":81.671875,"x_max":662.859375,"ha":760,"o":"m 662 115 l 662 625 l 551 740 l 193 740 l 81 625 l 81 115 l 193 0 l 551 0 l 662 115 m 230 90 l 170 152 l 170 587 l 230 650 l 514 650 l 574 587 l 574 152 l 514 90 l 230 90 "},"5":{"x_min":68.0625,"x_max":706.421875,"ha":776,"o":"m 80 972 l 80 490 l 529 490 l 617 400 l 617 180 l 528 90 l 215 90 l 96 131 l 68 47 l 205 0 l 566 0 l 706 141 l 706 438 l 567 580 l 168 580 l 168 881 l 706 881 l 706 972 l 80 972 "}}}
